<?xml version="1.0" standalone="no"?>
<!DOCTYPE svg PUBLIC "-//W3C//DTD SVG 20010904//EN"
 "http://www.w3.org/TR/2001/REC-SVG-20010904/DTD/svg10.dtd">
<svg version="1.0" xmlns="http://www.w3.org/2000/svg"
 width="800.000000pt" height="800.000000pt" viewBox="0 0 800.000000 800.000000"
 preserveAspectRatio="xMidYMid meet">
<metadata>
Created by potrace 1.14, written by Peter Selinger 2001-2017
</metadata>
<g transform="translate(0.000000,800.000000) scale(0.100000,-0.100000)"
fill="#000000" stroke="none">
<path d="M0 4005 l0 -3995 4000 0 4000 0 0 3995 0 3995 -4000 0 -4000 0 0
-3995z m5916 2695 c13 0 24 6 24 13 0 9 2 9 8 0 4 -7 21 -10 40 -8 17 2 34 0
37 -6 4 -5 17 -9 31 -9 15 0 24 -6 24 -15 0 -8 5 -15 11 -15 6 0 8 -8 5 -18
-6 -19 63 -101 86 -103 10 0 10 -2 1 -6 -20 -7 -15 -23 7 -23 13 0 22 -9 26
-27 11 -47 32 -73 60 -73 17 0 28 -7 31 -20 3 -11 9 -17 14 -14 5 3 9 -4 9
-16 0 -13 -4 -18 -11 -15 -6 4 -1 -12 11 -36 21 -41 21 -43 4 -56 -10 -7 -12
-13 -6 -13 21 0 -9 -26 -31 -27 -11 -1 -25 -7 -31 -14 -8 -9 0 -10 37 -5 62 9
87 1 87 -29 0 -19 4 -23 18 -18 14 5 15 3 5 -7 -9 -10 -10 -17 -2 -27 8 -9 8
-17 0 -26 -9 -11 -3 -16 29 -26 22 -6 40 -17 40 -22 0 -6 -7 -9 -15 -5 -8 3
-15 1 -15 -5 0 -13 -78 -48 -106 -49 -26 0 -76 -38 -68 -51 5 -9 -35 -29 -130
-64 -26 -10 -56 -26 -64 -36 -9 -11 -21 -19 -27 -19 -14 0 -115 -112 -109
-122 3 -4 0 -8 -6 -8 -7 0 -10 -6 -7 -14 3 -8 1 -17 -6 -20 -8 -3 -7 -9 4 -18
12 -9 16 -25 13 -53 -2 -21 3 -52 11 -69 8 -16 15 -39 15 -50 0 -12 11 -55 24
-96 13 -41 31 -109 40 -150 9 -41 30 -102 45 -135 16 -33 37 -78 46 -99 10
-21 30 -52 46 -67 17 -16 29 -39 29 -53 0 -36 -38 -96 -61 -96 -10 0 -19 -4
-19 -9 0 -5 -34 -9 -75 -10 -84 -2 -112 -9 -139 -40 -11 -11 -24 -21 -30 -21
-17 0 -83 -78 -90 -106 -6 -21 0 -33 32 -65 22 -21 49 -39 60 -39 47 0 52 -9
31 -50 -23 -44 -101 -120 -124 -120 -8 0 -15 -4 -15 -9 0 -13 -51 -48 -75 -53
-10 -1 -27 -10 -36 -19 -9 -9 -23 -21 -30 -25 -8 -5 -24 -30 -37 -55 -12 -26
-35 -61 -51 -80 -16 -18 -27 -38 -25 -44 3 -6 -5 -20 -16 -32 -11 -12 -20 -27
-20 -33 0 -5 -5 -10 -11 -10 -5 0 -8 -4 -4 -9 3 -5 -3 -16 -12 -23 -10 -7 -23
-22 -29 -33 -14 -25 -64 -35 -82 -18 -11 11 -11 17 -2 28 9 11 9 15 1 15 -6 0
-11 -4 -11 -10 0 -19 -17 -10 -30 15 -8 14 -16 21 -20 15 -4 -6 -12 0 -19 14
-8 13 -22 27 -32 29 -11 3 -22 13 -26 24 -5 10 -18 18 -33 18 -21 0 -25 5 -26
33 -1 17 2 32 6 32 3 0 7 7 7 15 0 17 -30 31 -35 16 -2 -6 -11 -11 -20 -11
-12 0 -13 -3 -4 -12 18 -18 14 -30 -8 -23 -13 4 -20 2 -20 -6 0 -8 -6 -6 -18
5 -18 15 -20 15 -46 -9 -15 -14 -33 -25 -39 -25 -7 0 -32 -18 -56 -40 -23 -22
-48 -40 -56 -40 -7 0 -18 -21 -25 -46 -16 -55 -75 -116 -142 -146 -27 -11 -48
-24 -48 -28 0 -5 -8 -7 -17 -5 -10 1 -24 -2 -31 -8 -8 -6 -36 -10 -64 -8 -28
1 -48 -1 -45 -7 4 -5 0 -9 -8 -9 -8 0 -13 3 -10 5 3 3 0 11 -6 18 -8 10 -3 12
25 7 24 -4 36 -2 36 6 0 6 -7 11 -16 11 -8 0 -13 4 -9 9 7 13 -34 8 -62 -7
-31 -17 -36 -15 -31 13 3 15 1 22 -5 18 -6 -4 -8 0 -4 11 6 14 4 15 -16 5 -19
-11 -21 -10 -9 3 15 19 0 33 -24 24 -9 -4 -12 -2 -8 5 4 6 0 15 -7 21 -12 7
-11 9 1 7 28 -3 41 1 35 10 -5 10 12 26 29 26 5 0 11 5 13 11 2 7 -9 10 -29 9
-18 -1 -38 4 -45 10 -10 11 -4 12 30 9 23 -2 36 -1 30 2 -19 8 -16 37 2 30 8
-3 15 -1 15 4 0 6 -11 10 -25 10 -19 0 -23 -4 -18 -17 4 -11 3 -14 -5 -9 -7 4
-9 19 -5 36 l6 30 -29 -15 c-41 -21 -57 -19 -49 5 6 18 2 20 -30 20 -39 0 -38
-1 -18 47 3 7 -3 10 -16 6 -12 -3 -21 -1 -21 6 0 6 -5 11 -11 11 -23 0 -79 33
-79 46 0 8 -7 17 -15 20 -8 4 -12 10 -9 15 3 5 -6 14 -20 21 -14 6 -26 17 -26
25 0 7 -6 13 -12 13 -13 0 -58 62 -58 79 0 5 -8 12 -17 16 -17 5 -53 69 -53
93 0 7 -4 12 -10 12 -5 0 -10 9 -10 20 0 11 -5 20 -11 20 -5 0 -7 5 -4 10 4 6
10 8 14 6 13 -9 10 39 -4 61 -19 29 -19 37 1 29 12 -5 15 -2 10 11 -6 15 -5
16 5 6 7 -7 17 -13 23 -13 5 0 7 3 4 6 -4 3 9 20 27 37 18 18 36 43 40 56 5
16 10 20 15 11 5 -8 10 -9 14 -1 4 6 24 8 52 4 32 -4 49 -2 62 10 9 8 31 18
49 22 18 3 42 14 55 24 40 32 92 40 163 26 11 -2 24 -4 29 -4 4 -1 6 -8 2 -16
-3 -9 0 -15 8 -15 8 0 16 -7 20 -15 7 -19 49 -19 84 -1 33 17 95 82 70 73 -12
-4 -20 2 -29 22 -12 26 -15 28 -52 19 -22 -5 -48 -13 -57 -18 -20 -11 -178
-23 -191 -14 -4 2 -3 16 3 29 6 13 15 22 19 19 5 -3 10 5 10 18 1 17 3 18 6 6
2 -10 13 -18 23 -18 10 0 22 -4 25 -10 9 -15 72 -12 140 5 70 19 85 29 85 61
0 19 5 24 24 24 15 0 26 -7 29 -20 3 -11 10 -20 16 -20 6 0 20 9 31 20 11 11
24 20 28 20 5 0 17 9 27 20 10 11 24 20 32 20 7 0 13 4 13 9 0 5 14 11 30 15
32 6 114 56 92 56 -21 0 8 37 45 57 18 10 33 22 33 26 0 5 9 7 20 4 12 -3 29
4 47 20 15 14 41 32 59 39 27 11 34 11 44 -1 7 -8 9 -15 4 -15 -5 0 3 -11 18
-25 34 -31 86 -33 180 -6 39 11 70 16 73 10 4 -5 1 -9 -6 -9 -7 0 -20 -6 -28
-13 -9 -8 -44 -22 -78 -32 -35 -10 -63 -22 -63 -27 0 -5 7 -5 16 0 21 12 56 3
51 -11 -4 -13 -40 -25 -82 -26 -43 -2 -54 -12 -48 -44 5 -28 8 -29 54 -25 65
6 172 61 231 119 42 42 66 81 38 64 -5 -3 -10 -3 -10 2 0 11 66 53 82 53 7 0
18 8 25 19 6 10 29 21 52 25 54 8 77 41 63 88 -6 18 -13 73 -16 122 -3 49 -7
91 -10 93 -6 7 -51 16 -78 16 -16 0 -28 4 -28 9 0 6 -22 8 -52 4 -29 -3 -75
-7 -103 -10 -101 -10 -129 -16 -139 -26 -5 -5 -19 -10 -30 -10 -44 0 -95 -20
-90 -35 4 -9 -3 -16 -21 -21 -15 -4 -60 -28 -99 -54 -39 -27 -80 -50 -91 -52
-11 -1 -33 -15 -49 -30 -16 -16 -35 -28 -43 -28 -7 0 -16 -6 -19 -14 -6 -17
-81 -49 -94 -41 -5 3 -11 1 -14 -4 -7 -11 -46 -2 -46 10 0 16 -19 9 -45 -17
-21 -20 -26 -22 -31 -10 -8 21 -59 29 -115 18 -25 -5 -55 -5 -67 -1 -14 5 -22
4 -22 -2 0 -6 -5 -7 -11 -3 -12 7 -119 -44 -119 -57 0 -5 8 -6 18 -3 13 5 14
4 3 -4 -7 -5 -22 -7 -32 -5 -13 4 -19 0 -19 -10 0 -9 -10 -19 -22 -23 -13 -3
-30 -12 -38 -20 -13 -11 -24 -11 -55 -2 -75 20 -71 18 -55 29 26 17 -50 -1
-100 -24 -49 -23 -90 -56 -90 -73 0 -7 -8 -15 -17 -19 -20 -7 -29 -4 -25 9 2
5 -9 6 -23 4 -17 -4 -25 -1 -25 8 0 18 -19 18 -26 0 -3 -8 -12 -12 -19 -10 -7
3 -16 1 -19 -5 -4 -6 -14 -8 -24 -5 -14 5 -14 4 -3 -4 12 -8 7 -14 -22 -28
-20 -10 -37 -24 -37 -33 0 -8 -7 -23 -17 -33 -9 -11 -11 -18 -5 -18 7 0 12 -5
12 -10 0 -6 -8 -5 -20 2 -11 7 -18 17 -16 23 17 42 18 45 2 45 -13 0 -15 6
-10 26 5 19 4 25 -5 20 -6 -4 -11 -14 -11 -22 0 -16 -2 -16 -24 -8 -9 3 -16
12 -16 19 0 38 -54 19 -65 -22 -3 -13 -13 -23 -23 -23 -15 0 -15 -2 -2 -10 9
-6 10 -10 3 -10 -6 0 -14 -15 -18 -32 -8 -39 -43 -115 -56 -124 -6 -3 -21 6
-34 20 -13 14 -21 26 -17 26 4 0 -1 7 -12 15 -10 7 -15 18 -11 24 4 7 -5 11
-23 11 -24 0 -30 4 -31 23 -3 85 -7 112 -18 111 -31 -2 -35 -5 -29 -19 3 -10
-1 -15 -11 -15 -14 0 -14 -2 3 -15 19 -14 19 -14 -1 -16 -11 -1 -23 -1 -27 -1
-3 1 -9 -5 -12 -13 -3 -9 0 -15 8 -15 8 0 16 6 19 13 3 9 12 8 38 -6 33 -17
33 -17 6 -14 -15 3 -30 0 -33 -4 -3 -5 -18 -9 -34 -9 -22 0 -28 -4 -24 -15 4
-9 0 -15 -9 -15 -8 0 -18 -11 -21 -25 -4 -14 -13 -25 -21 -25 -8 0 -15 -5 -15
-11 0 -8 -6 -7 -17 2 -13 11 -17 11 -20 2 -3 -7 -10 -13 -16 -13 -22 0 -142
-53 -150 -66 -4 -7 -14 -11 -21 -8 -8 3 -17 1 -21 -5 -3 -6 -17 -11 -31 -11
-13 0 -24 -4 -24 -10 0 -5 -7 -10 -15 -10 -8 0 -15 -4 -15 -10 0 -5 -3 -9 -7
-8 -5 1 -22 -2 -40 -6 -20 -4 -40 -3 -54 4 -19 10 -25 8 -46 -15 -14 -15 -31
-24 -39 -21 -8 3 -17 -1 -20 -9 -4 -8 -9 -13 -13 -11 -3 2 -12 -2 -19 -10 -7
-8 -10 -14 -6 -14 4 0 -3 -11 -16 -25 -20 -22 -25 -23 -33 -10 -4 8 -5 20 -1
26 3 6 1 15 -5 19 -7 4 -13 19 -15 33 -1 15 -15 36 -29 47 -15 12 -32 33 -39
48 -12 24 -11 29 7 45 20 17 19 17 -8 7 -26 -9 -27 -8 -16 11 14 28 9 31 -51
31 -46 0 -51 2 -48 22 2 17 -2 21 -19 19 -25 -3 -29 11 -13 51 7 21 6 26 -5
26 -8 0 -15 -5 -15 -11 0 -5 -5 -7 -10 -4 -6 4 -4 12 5 21 22 23 18 35 -10 30
-13 -3 -27 0 -31 5 -3 5 -10 7 -15 4 -9 -6 -13 12 -10 45 0 8 -4 5 -11 -7 -6
-13 -17 -23 -24 -23 -7 0 -14 -4 -16 -8 -1 -4 -18 -18 -37 -31 -28 -20 -31
-25 -17 -33 9 -5 16 -14 16 -19 0 -6 -4 -7 -10 -4 -5 3 -10 1 -10 -5 0 -7 -6
-10 -12 -7 -7 2 -12 10 -10 16 1 7 -2 10 -8 6 -8 -5 -7 -11 1 -21 15 -18 7
-27 -15 -18 -10 4 -15 13 -12 21 3 8 6 25 6 38 0 12 14 36 31 53 17 17 28 35
25 40 -3 5 1 15 9 22 8 7 12 16 9 22 -7 11 14 38 30 38 6 0 3 -7 -6 -14 -24
-18 -23 -29 2 -21 11 4 20 2 20 -4 0 -6 -5 -11 -11 -11 -6 0 -8 -7 -5 -16 3
-8 2 -12 -3 -9 -5 3 -12 2 -15 -3 -2 -4 4 -9 15 -9 10 -1 24 7 29 18 14 25 67
53 72 37 3 -8 10 -8 26 1 12 6 42 10 67 8 31 -2 44 0 41 8 -4 11 135 82 174
89 17 3 80 50 80 59 0 7 15 20 32 30 31 18 33 18 46 0 11 -16 12 -12 7 27 l-7
45 32 -47 c28 -41 32 -57 35 -123 1 -42 -2 -75 -7 -75 -5 0 -8 -6 -5 -12 5
-17 36 -12 121 18 49 18 77 22 95 17 38 -12 91 -5 91 13 0 8 9 14 20 14 27 0
25 14 -2 26 -13 6 -17 9 -10 7 6 -1 12 7 12 18 0 11 4 18 8 15 4 -2 9 4 9 15
2 17 0 18 -13 4 -9 -8 -23 -15 -32 -15 -14 0 -13 3 4 18 16 13 20 22 14 37 -8
19 -9 19 -9 -2 -1 -18 -7 -23 -26 -23 -14 0 -24 3 -23 8 0 4 -2 15 -6 24 -4 9
-2 26 4 39 11 19 10 21 -6 15 -16 -6 -17 -5 -2 11 21 25 35 52 19 37 -15 -14
-58 -6 -65 12 -3 8 -1 14 4 14 4 0 2 14 -7 30 -13 28 -13 33 7 65 12 19 26 35
31 35 13 0 11 -9 -6 -27 -9 -8 -13 -18 -10 -21 3 -3 18 8 34 26 16 17 25 32
19 34 -15 5 25 68 44 68 9 0 23 3 32 6 11 4 16 1 16 -11 0 -14 3 -15 15 -5 8
7 15 9 15 4 0 -4 7 1 15 12 13 18 14 18 9 -6 -5 -21 -4 -22 6 -8 13 20 40 13
40 -11 0 -9 5 -22 12 -29 9 -9 8 -12 -5 -12 -10 0 -17 8 -17 20 0 11 -4 20 -9
20 -15 0 -22 -33 -9 -41 9 -6 7 -14 -11 -32 -14 -16 -19 -27 -12 -32 6 -3 11
1 11 9 0 20 17 21 36 2 12 -13 12 -15 -4 -19 -14 -3 -12 -6 11 -17 15 -7 27
-20 27 -28 0 -12 -3 -12 -15 -2 -14 11 -19 7 -16 -12 2 -12 -17 -10 -24 2 -10
17 -25 11 -25 -10 0 -11 5 -20 10 -20 18 0 11 -17 -12 -28 -21 -11 -21 -12 7
-7 41 7 64 -12 55 -45 -6 -18 -8 -20 -9 -6 -1 15 -4 16 -16 6 -12 -10 -15 -10
-15 3 0 8 6 18 13 20 6 3 -3 6 -20 6 -18 1 -33 -4 -33 -10 0 -6 7 -9 15 -5 8
3 15 3 15 1 0 -11 -26 -61 -35 -67 -6 -5 -3 -8 7 -8 9 0 18 10 21 23 3 15 5
12 6 -11 0 -19 5 -31 11 -27 13 8 13 -1 -1 -27 -14 -27 -2 -36 16 -12 13 17
14 17 15 2 0 -12 8 -18 22 -18 22 0 20 -10 -4 -14 -24 -3 -38 -17 -39 -39 0
-21 -1 -21 -9 -2 -6 13 -9 15 -9 5 -1 -25 13 -35 47 -35 17 1 32 -2 32 -7 0
-4 -9 -8 -21 -8 -18 0 -49 -21 -49 -34 0 -2 13 -1 28 4 22 6 31 4 39 -10 10
-14 8 -16 -13 -12 -17 3 -24 0 -24 -12 0 -20 58 -16 71 5 5 8 9 10 9 5 0 -6 5
-5 12 2 8 8 8 15 -2 27 -9 11 -9 15 0 15 8 0 9 10 5 30 -6 26 -4 29 12 23 16
-6 16 -5 4 10 -7 9 -11 23 -8 32 4 8 2 17 -3 20 -5 3 -6 21 -3 40 3 20 1 41
-6 49 -9 10 -8 16 3 25 11 9 15 9 19 -1 4 -9 6 -8 6 2 1 9 -5 22 -11 29 -10
11 -10 13 0 7 6 -4 12 -4 12 1 0 4 20 22 45 38 31 20 48 39 52 58 3 16 12 31
19 34 8 3 14 13 14 23 0 11 5 22 11 25 5 4 8 12 6 18 -7 20 62 85 84 80 10 -3
19 -8 19 -12 0 -3 15 -6 33 -5 17 0 40 -4 50 -8 18 -9 87 9 87 23 0 4 12 7 28
7 48 -1 195 65 242 109 14 13 40 33 58 44 17 12 30 25 26 30 -3 5 0 9 5 9 18
0 63 -78 71 -122 5 -25 4 -50 -2 -61 -11 -22 -11 -23 22 -31 14 -3 19 -3 12 0
-10 5 -10 9 -1 20 7 8 15 32 18 52 5 27 12 38 26 40 17 2 60 72 57 93 0 3 4
23 9 45 5 21 12 55 15 74 2 19 8 37 12 40 4 3 12 14 18 25 6 11 17 20 25 21
31 2 33 5 16 18 -10 8 -14 17 -9 20 4 2 21 -7 36 -21 30 -28 30 -28 41 6 6 20
4 23 -9 18 -9 -4 -16 -2 -16 4 0 5 7 12 15 15 8 4 15 14 15 25 0 10 9 23 20
29 11 6 20 7 20 3 0 -3 12 5 28 19 36 33 58 40 72 22 7 -8 9 -14 4 -14 -5 0
-3 -4 5 -9 10 -7 18 -5 26 6 10 14 13 13 28 -2 19 -18 65 -14 79 8 5 8 8 6 8
-6 0 -16 2 -17 15 -3 8 8 15 21 15 28 0 20 20 37 36 31 8 -3 14 0 14 6 0 18
24 13 37 -7 14 -24 132 -85 150 -78 23 9 14 38 -25 85 -47 55 -62 83 -62 111
0 26 124 151 177 179 46 23 83 19 76 -8 -6 -25 30 -33 65 -15 15 8 34 14 43
14 9 0 19 3 23 7 11 12 74 31 144 43 37 7 91 21 120 31 29 11 63 19 76 19 13
0 27 7 30 16 5 13 9 14 21 4 13 -11 14 -10 10 2 -4 11 8 21 44 37 27 11 56 21
65 21 8 0 18 5 21 10 4 6 11 8 16 5 5 -4 17 -2 26 4 13 7 19 6 21 -5 2 -8 14
-14 28 -14z m-1753 -625 c-4 -11 -7 -31 -7 -45 -1 -34 -31 -37 -52 -5 -16 25
-16 27 4 48 28 30 65 31 55 2z m62 -77 c-15 -48 -43 -51 -31 -3 4 14 13 25 22
25 11 0 14 -6 9 -22z m-1000 -328 c-3 -5 -14 -10 -23 -10 -15 0 -15 2 -2 10
20 13 33 13 25 0z m5 -40 c0 -5 -5 -10 -11 -10 -5 0 -7 5 -4 10 3 6 8 10 11
10 2 0 4 -4 4 -10z m3190 -20 c0 -5 -10 -10 -22 -10 -19 0 -20 2 -8 10 19 13
30 13 30 0z m-3689 -33 c-6 -6 -11 -19 -11 -29 0 -16 -3 -17 -20 -8 -24 13
-26 30 -5 30 9 0 18 7 21 15 4 8 11 12 16 9 6 -4 6 -10 -1 -17z m475 -47 c0
-12 -4 -16 -9 -11 -5 5 -6 14 -3 20 10 15 12 14 12 -9z m63 -140 c0 -10 -2
-11 -6 -2 -7 17 -20 15 -42 -7 -18 -18 -19 -18 -17 5 0 13 7 24 14 24 6 0 12
5 12 10 0 6 8 5 20 -2 11 -7 20 -20 19 -28z m-89 20 c0 -5 -2 -10 -4 -10 -3 0
-8 5 -11 10 -3 6 -1 10 4 10 6 0 11 -4 11 -10z m3611 -22 c40 -14 74 -46 84
-79 4 -13 15 -37 25 -54 10 -16 15 -36 13 -42 -3 -7 1 -13 8 -13 8 0 3 -7 -10
-16 -16 -12 -21 -22 -17 -39 5 -20 3 -22 -17 -18 -16 4 -19 2 -8 -5 12 -8 9
-15 -13 -35 -24 -23 -25 -26 -10 -35 11 -6 13 -11 5 -16 -6 -4 -11 -18 -11
-32 0 -16 -6 -24 -17 -25 -10 0 -13 -3 -6 -5 7 -3 9 -12 6 -20 -5 -13 -7 -13
-14 -2 -9 13 -10 6 -13 -74 -1 -15 -5 -30 -9 -34 -4 -4 -7 -18 -7 -31 0 -15
-5 -23 -12 -21 -12 4 -38 -14 -38 -26 0 -3 7 -6 17 -6 15 0 15 -1 0 -18 -10
-10 -14 -22 -10 -26 4 -4 -1 -4 -11 0 -15 6 -17 3 -12 -13 6 -18 1 -21 -31
-25 -22 -3 -41 0 -45 6 -5 8 -8 7 -8 -1 0 -17 -54 -10 -74 9 -8 9 -12 18 -9
22 4 3 -1 6 -11 6 -9 0 -15 4 -11 10 3 5 -5 16 -19 25 -30 20 -106 119 -106
138 0 7 -4 17 -9 23 -16 16 -81 143 -81 157 0 8 -9 22 -20 32 -23 21 -50 71
-50 92 0 20 36 50 83 69 20 9 37 23 37 31 0 8 5 11 10 8 6 -4 8 -11 5 -16 -9
-14 3 -11 24 8 11 9 41 18 68 19 26 2 58 6 71 9 12 3 43 8 68 11 26 3 57 12
69 20 12 8 25 11 29 7 4 -4 9 3 13 15 6 25 25 27 74 10z m-3856 -8 c-3 -5 -12
-7 -20 -3 -21 7 -19 13 6 13 11 0 18 -4 14 -10z m2370 -120 c-3 -5 -13 -10
-21 -10 -8 0 -12 5 -9 10 3 6 13 10 21 10 8 0 12 -4 9 -10z m-2475 -78 c0 -5
-9 -12 -20 -15 -21 -5 -25 7 -14 37 5 13 8 13 20 1 8 -7 14 -18 14 -23z m694
-197 c-4 -8 -8 -15 -10 -15 -2 0 -4 7 -4 15 0 8 4 15 10 15 5 0 7 -7 4 -15z
m81 -12 c18 -14 18 -15 2 -9 -10 3 -23 6 -28 6 -5 0 -9 5 -9 10 0 14 12 12 35
-7z m-2568 -15 c-3 -8 -6 -5 -6 6 -1 11 2 17 5 13 3 -3 4 -12 1 -19z m3423 8
c0 -3 -4 -8 -10 -11 -5 -3 -10 -1 -10 4 0 6 5 11 10 11 6 0 10 -2 10 -4z
m-2451 -120 c8 -10 9 -16 1 -21 -6 -4 -10 -21 -8 -39 1 -17 -2 -37 -6 -44 -4
-7 -4 -12 1 -11 20 3 24 -2 12 -17 -8 -10 -9 -18 -3 -22 26 -17 38 -79 20 -98
-19 -18 -32 -18 -17 0 7 8 8 17 3 20 -13 7 -22 -4 -22 -26 0 -10 -5 -18 -11
-18 -6 0 -3 -7 5 -16 22 -21 20 -37 -3 -29 -15 5 -18 2 -14 -13 3 -12 -3 -22
-19 -30 -23 -11 -23 -11 3 -6 15 3 30 1 33 -5 9 -14 -12 -53 -25 -46 -5 4 -7
11 -3 17 3 5 -8 3 -24 -6 -42 -22 -50 -20 -44 9 2 14 11 25 19 25 11 0 11 3 1
14 -7 7 -18 12 -24 9 -7 -2 -15 0 -19 6 -3 6 -2 11 3 11 4 0 19 10 31 21 18
17 20 23 9 31 -10 7 -10 11 0 15 22 9 13 25 -10 17 -20 -6 -21 -5 -6 10 9 9
21 16 27 16 6 0 11 5 11 11 0 5 -4 8 -9 4 -15 -9 -23 13 -16 45 6 29 7 29 30
14 26 -17 50 -11 38 9 -4 7 -9 21 -10 31 -5 27 -7 28 -37 17 -17 -7 -26 -7
-26 -1 0 6 7 10 15 10 8 0 15 5 15 10 0 6 6 10 13 10 12 0 37 44 37 67 0 17
15 17 29 -1z m-647 -88 c-7 -7 -12 -8 -12 -2 0 14 12 26 19 19 2 -3 -1 -11 -7
-17z m6028 2 c0 -5 -5 -10 -11 -10 -5 0 -7 5 -4 10 3 6 8 10 11 10 2 0 4 -4 4
-10z m-6390 -20 c0 -5 -2 -10 -4 -10 -3 0 -8 5 -11 10 -3 6 -1 10 4 10 6 0 11
-4 11 -10z m10 -24 c0 -3 -4 -8 -10 -11 -5 -3 -10 -1 -10 4 0 6 5 11 10 11 6
0 10 -2 10 -4z m21 -28 c5 -39 2 -54 -11 -65 -13 -10 -13 -12 3 -18 9 -4 17
-10 17 -14 0 -6 -16 -6 -64 -2 -5 1 -1 10 9 21 16 18 16 20 2 20 -10 0 -17 5
-17 10 0 6 5 10 10 10 6 0 10 6 10 13 0 27 39 49 41 25z m-68 -16 c-16 -13
-18 -20 -8 -28 19 -19 7 -72 -18 -76 -11 -2 -22 -9 -25 -17 -3 -9 0 -11 9 -6
7 5 22 9 33 10 12 1 30 6 41 10 16 7 18 6 8 -6 -18 -18 -16 -32 3 -25 12 4 14
1 9 -14 -4 -11 -3 -20 2 -20 20 0 158 42 163 50 3 4 23 2 45 -6 22 -8 46 -12
54 -9 20 8 94 -27 78 -37 -9 -5 -4 -15 17 -33 28 -24 43 -29 76 -26 10 1 8 -3
-5 -11 -33 -19 -46 -36 -35 -43 14 -8 9 -56 -8 -80 -9 -12 -12 -14 -9 -4 3 9
-1 16 -8 16 -7 0 -11 -7 -8 -15 5 -11 1 -13 -15 -7 -19 5 -22 3 -22 -24 0 -26
-4 -31 -25 -31 -17 0 -25 -6 -25 -17 0 -9 -3 -13 -7 -10 -3 4 -17 0 -29 -8
-20 -13 -25 -13 -37 -1 -9 10 -18 11 -28 4 -11 -7 -11 -11 -1 -15 17 -7 5 -23
-13 -16 -9 3 -15 -1 -15 -11 0 -9 -4 -16 -10 -16 -5 0 -10 6 -10 13 0 9 -3 8
-9 -2 -7 -11 -9 -11 -13 0 -6 19 -38 3 -38 -20 0 -22 -27 -31 -78 -25 -52 7
-82 -3 -82 -25 0 -13 -5 -18 -18 -14 -10 2 -28 -5 -41 -16 -27 -23 -37 -26
-46 -11 -3 6 -2 10 2 10 5 0 9 18 9 40 1 22 -2 37 -7 34 -5 -3 -9 2 -9 10 0 9
-12 19 -27 22 -24 6 -25 8 -8 20 12 9 15 19 10 31 -6 15 -8 15 -13 3 -8 -22
-32 -43 -40 -36 -3 4 0 11 7 15 7 5 15 20 16 35 3 20 -1 26 -17 26 -16 0 -19
5 -15 28 2 15 2 21 0 15 -3 -7 -11 -13 -20 -13 -10 0 -13 6 -9 16 3 9 3 21 -1
27 -12 20 -12 57 0 57 7 0 4 5 -5 11 -21 11 -24 35 -6 41 8 3 7 11 -4 27 -9
13 -15 28 -13 35 2 6 6 23 9 37 7 30 53 54 85 44 12 -4 21 -2 21 4 0 6 6 11
14 11 7 0 19 7 26 15 7 8 16 12 21 10 4 -3 16 2 26 12 18 17 51 36 83 46 29
10 33 7 13 -11z m1677 3 c-7 -9 -15 -13 -19 -10 -3 3 1 10 9 15 21 14 24 12
10 -5z m1075 -15 c-3 -5 -10 -10 -16 -10 -5 0 -9 5 -9 10 0 6 7 10 16 10 8 0
12 -4 9 -10z m-122 -50 c-4 -13 1 -26 12 -34 10 -7 15 -18 11 -25 -4 -6 0 -14
8 -17 9 -3 16 -15 16 -26 0 -15 5 -18 23 -13 20 6 20 6 6 -6 -10 -8 -20 -25
-24 -39 -7 -22 -6 -23 9 -11 9 7 16 9 16 4 0 -5 14 -8 30 -5 26 4 30 8 27 30
-2 14 -12 29 -23 33 -18 7 -18 8 3 14 13 4 20 12 16 21 -3 8 1 14 10 14 17 0
31 -45 21 -62 -5 -7 -2 -9 8 -6 8 4 21 2 29 -3 11 -7 11 -9 -3 -9 -13 0 -18
-8 -18 -29 0 -24 -5 -30 -30 -34 -20 -5 -30 -12 -30 -24 1 -16 2 -16 13 -3 14
19 60 24 54 7 -2 -7 -12 -12 -23 -12 -10 0 -19 -7 -19 -15 0 -8 8 -14 17 -14
10 1 21 -10 27 -28 9 -25 8 -30 -12 -37 -27 -10 -40 -4 -33 15 3 8 1 14 -4 14
-6 0 -10 -10 -10 -22 -1 -23 -1 -23 -16 -3 -14 19 -15 18 -12 -17 1 -23 7 -38
15 -38 7 0 13 -4 13 -8 0 -5 11 -14 25 -20 23 -11 24 -10 13 7 -12 20 -5 51
12 51 13 0 13 -17 0 -25 -15 -9 -12 -25 5 -25 8 0 22 -17 32 -37 9 -21 25 -45
35 -55 10 -10 18 -24 18 -32 0 -8 6 -16 13 -19 18 -7 11 -113 -9 -144 -8 -12
-14 -28 -14 -35 0 -7 -11 -14 -25 -14 -17 -1 -25 3 -25 14 0 12 -3 13 -12 4
-7 -7 -22 -12 -35 -12 -13 0 -23 -4 -23 -10 0 -5 -7 -10 -15 -10 -8 0 -15 -6
-15 -14 0 -18 -23 -27 -41 -15 -8 5 -38 6 -68 4 -46 -5 -57 -2 -77 17 -73 72
-94 80 -94 38 0 -10 -4 -22 -10 -25 -5 -3 -10 -14 -10 -24 0 -10 -11 -24 -25
-31 -14 -7 -25 -17 -25 -22 0 -4 -6 -8 -14 -8 -8 0 -17 -7 -20 -16 -5 -12 -1
-14 17 -9 19 5 17 2 -10 -22 -17 -15 -34 -38 -37 -49 -5 -17 -12 -21 -29 -16
-18 4 -20 3 -11 -9 17 -21 5 -81 -17 -86 -11 -3 -19 -12 -19 -20 0 -10 -6 -13
-16 -9 -24 9 -42 -6 -18 -16 12 -5 5 -6 -21 -3 -53 7 -54 7 -95 0 -19 -3 -50
-3 -68 0 -28 5 -31 9 -22 21 10 11 10 14 0 14 -8 0 -22 7 -32 17 -15 13 -23
14 -44 5 -15 -7 -23 -8 -19 -2 3 5 0 10 -8 10 -8 0 -20 7 -27 15 -14 16 -73
13 -95 -5 -16 -13 -23 -3 -20 28 2 26 -13 30 -22 5 -6 -14 -9 -12 -20 12 l-14
30 6 -30 c4 -24 3 -27 -5 -12 -6 9 -18 17 -27 17 -13 0 -13 3 -3 15 10 12 10
15 -1 17 -8 0 -18 2 -24 2 -15 2 -65 52 -65 65 0 6 -4 11 -10 11 -5 0 -10 5
-10 11 0 6 9 9 20 6 11 -3 18 -1 14 4 -3 5 -12 9 -20 9 -8 0 -20 12 -27 28 -6
15 -18 35 -26 44 -19 22 -22 100 -4 93 7 -2 13 0 13 5 0 6 -4 10 -10 10 -5 0
-10 6 -10 14 0 8 -6 17 -12 19 -8 3 -5 6 6 6 15 1 17 6 12 35 -6 29 -3 35 14
41 11 3 20 10 20 14 0 4 18 16 39 27 22 10 42 28 45 39 5 16 8 17 15 6 5 -7
14 -11 20 -7 7 5 9 1 5 -9 -10 -25 30 -5 61 33 25 30 55 43 55 24 0 -5 12 -15
28 -23 15 -8 36 -22 46 -31 18 -17 58 -23 114 -18 30 2 183 57 196 70 12 12
56 13 56 2 0 -5 14 -7 30 -4 17 2 30 10 30 18 0 7 4 15 9 18 5 4 7 -4 4 -16
-5 -23 -5 -23 10 -3 8 11 18 47 22 80 16 133 73 169 233 150 l63 -8 -12 27
c-9 19 -15 23 -21 14 -5 -9 -8 -8 -8 5 0 10 -4 15 -10 12 -10 -6 -14 7 -10 34
1 9 -4 12 -14 8 -11 -4 -16 -1 -17 11 -3 48 11 65 48 55 14 -3 23 -1 23 6 0 6
4 11 9 11 5 0 7 -9 4 -20z m136 0 c0 -8 -4 -24 -9 -35 -8 -18 -9 -17 -9 8 -1
15 -5 27 -11 27 -5 0 -10 4 -10 8 0 4 9 8 20 8 12 0 20 -7 19 -16z m-1839 -66
c0 -8 -5 -12 -10 -9 -6 4 -8 11 -5 16 9 14 15 11 15 -7z m-1490 -53 c0 -12
-20 -25 -27 -18 -7 7 6 27 18 27 5 0 9 -4 9 -9z m75 -11 c7 -21 25 -28 25 -9
0 6 9 8 20 4 15 -5 18 -3 14 9 -3 9 -1 16 5 16 6 0 11 -4 11 -10 0 -5 12 -8
28 -6 15 2 21 1 14 -1 -10 -4 -8 -9 5 -21 18 -16 26 -72 11 -72 -5 0 -8 -7 -8
-16 0 -8 -5 -12 -10 -9 -6 4 -8 16 -4 27 5 17 3 20 -10 15 -22 -9 -20 -2 5 22
l21 19 -23 12 c-19 11 -21 10 -15 -5 18 -48 -56 -52 -83 -4 -9 16 -19 29 -23
29 -5 0 -8 5 -8 10 0 18 18 11 25 -10z m1532 -12 c2 -17 0 -19 -7 -8 -5 8 -6
18 -4 22 8 12 10 10 11 -14z m-1600 -22 c-2 -6 -13 -10 -25 -9 -32 1 -34 2
-27 13 8 13 56 9 52 -4z m-76 -73 c-20 -14 -25 -10 -16 16 5 16 9 18 19 8 11
-10 10 -14 -3 -24z m1619 17 c-6 -11 -13 -20 -15 -20 -3 0 -5 9 -5 20 0 11 7
20 15 20 13 0 14 -4 5 -20z m-505 0 c3 -5 2 -10 -4 -10 -5 0 -13 5 -16 10 -3
6 -2 10 4 10 5 0 13 -4 16 -10z m-795 -21 c0 -6 -4 -7 -10 -4 -5 3 -10 11 -10
16 0 6 5 7 10 4 6 -3 10 -11 10 -16z m1330 2 c0 -19 -17 -38 -25 -29 -7 7 7
48 16 48 5 0 9 -9 9 -19z m960 -43 c0 -5 6 -8 14 -6 8 2 14 -1 13 -7 -2 -10
-107 -21 -107 -11 0 23 25 42 51 38 16 -2 29 -8 29 -14z m-2303 -20 c-3 -7 -5
-2 -5 12 0 14 2 19 5 13 2 -7 2 -19 0 -25z m2208 2 c3 -5 1 -10 -4 -10 -6 0
-11 5 -11 10 0 6 2 10 4 10 3 0 8 -4 11 -10z m-2533 -92 c-6 -6 -15 -8 -19 -4
-4 4 -1 11 7 16 19 12 27 3 12 -12z m-2 -47 c0 -5 3 -18 7 -28 6 -17 6 -17
-10 -1 -19 18 -22 38 -7 38 6 0 10 -4 10 -9z m6070 -55 c0 -12 -59 -61 -70
-58 -7 3 -10 -1 -7 -9 2 -8 10 -13 18 -11 7 2 24 0 38 -3 22 -6 14 -11 -55
-34 -44 -14 -93 -34 -107 -44 -32 -21 -79 -41 -89 -39 -5 1 -8 -3 -8 -8 0 -5
-16 -10 -35 -10 -25 0 -35 4 -35 16 0 10 -6 14 -15 11 -8 -4 -17 -2 -20 4 -4
5 0 11 7 13 86 25 98 30 98 48 0 11 -3 17 -8 14 -4 -2 -16 2 -27 10 -17 13
-17 16 -4 29 15 15 117 39 156 37 12 -1 24 2 27 7 3 4 16 6 29 4 14 -3 29 2
36 11 11 13 71 24 71 12z m-6123 -43 c-9 -9 -19 -14 -23 -11 -10 10 6 28 24
28 15 0 15 -1 -1 -17z m63 -3 c0 -5 -2 -10 -4 -10 -3 0 -8 5 -11 10 -3 6 -1
10 4 10 6 0 11 -4 11 -10z m1763 -128 c7 -5 23 -13 37 -17 39 -12 66 -45 36
-45 -19 0 -43 -30 -25 -31 9 0 10 -2 2 -5 -6 -3 -30 4 -52 15 -22 12 -56 21
-74 21 -38 0 -82 -29 -92 -60 -12 -37 -25 -21 -19 23 12 73 35 104 94 120 19
5 77 -8 93 -21z m2247 8 c8 -5 12 -11 9 -14 -3 -3 -14 1 -25 9 -21 16 -8 20
16 5z m1598 -114 c30 -33 31 -36 16 -65 -16 -33 -12 -51 12 -51 8 0 14 -4 14
-8 0 -10 163 -8 205 2 17 4 48 12 70 17 57 15 198 48 278 65 37 8 73 12 78 8
6 -3 44 -6 85 -6 68 0 74 -1 69 -18 -3 -10 -1 -21 5 -25 5 -3 10 -1 10 5 0 6
4 9 9 6 11 -7 3 -46 -9 -46 -5 0 -11 6 -13 13 -3 6 -6 3 -6 -9 -1 -11 -15 -33
-31 -49 -18 -17 -29 -37 -28 -49 2 -14 -7 -25 -27 -35 -16 -9 -32 -19 -33 -24
-2 -4 -8 -5 -12 -2 -5 3 -17 -2 -27 -12 -10 -10 -27 -17 -38 -15 -11 3 -17 1
-13 -3 4 -5 -2 -17 -15 -27 -12 -10 -37 -33 -54 -49 -21 -20 -41 -29 -55 -27
-13 2 -27 -2 -33 -9 -5 -7 -37 -15 -70 -18 -37 -3 -64 -11 -71 -20 -7 -9 -18
-13 -28 -9 -9 3 -16 2 -16 -2 0 -5 -39 -9 -87 -9 -49 -1 -107 -4 -130 -9 -38
-7 -43 -6 -44 11 -1 16 -2 16 -6 0 -3 -13 -12 -16 -33 -12 -16 3 -41 0 -57 -7
-15 -6 -35 -13 -43 -14 -8 -2 -42 -7 -75 -13 -69 -11 -97 -20 -107 -35 -5 -7
-8 -7 -8 2 0 6 -9 12 -19 12 -11 0 -22 6 -25 13 -4 6 -4 1 -2 -11 3 -13 2 -21
-1 -18 -3 3 -14 1 -24 -5 -15 -8 -17 -6 -13 6 4 9 -1 22 -12 31 -18 15 -18 15
4 11 12 -3 22 -2 22 3 0 10 -25 20 -49 20 -10 0 -17 8 -18 20 -1 11 3 20 9 20
6 0 8 12 5 30 -6 25 -3 30 14 30 11 0 17 5 14 10 -3 6 0 17 9 25 11 11 16 12
19 2 4 -9 8 -9 15 2 5 7 14 11 19 8 5 -3 21 5 36 18 15 15 29 21 32 15 10 -16
25 -1 41 37 8 18 18 32 23 29 7 -5 9 1 13 44 1 11 8 20 16 20 7 0 10 5 6 11
-3 6 -16 9 -28 7 -19 -4 -22 -1 -18 19 3 17 -1 25 -17 31 -18 6 -19 10 -9 23
20 25 88 62 88 49 0 -7 12 -4 33 9 17 11 30 23 27 26 -6 8 40 34 61 35 9 0 30
-15 47 -34z m-1578 14 c0 -5 -7 -7 -15 -4 -8 4 -15 8 -15 10 0 2 7 4 15 4 8 0
15 -4 15 -10z m-448 -40 c11 -19 27 -39 35 -45 31 -23 45 -158 17 -169 -10 -4
-13 -13 -9 -26 4 -13 2 -20 -7 -20 -7 0 -24 -10 -38 -23 -84 -76 -104 -81
-168 -40 -50 33 -61 57 -66 151 -2 40 -8 78 -15 85 -6 6 -11 16 -11 23 0 7 -5
14 -12 16 -9 3 -9 6 0 12 7 4 12 3 12 -1 0 -5 15 -7 33 -5 25 3 39 12 52 35
26 44 32 47 98 44 54 -3 59 -6 79 -37z m1589 11 c5 -11 16 -21 24 -21 12 0 15
-6 10 -20 -5 -15 -3 -18 9 -14 9 3 16 1 16 -6 0 -6 4 -8 10 -5 6 4 7 -1 3 -12
-7 -19 -29 -36 -53 -40 -65 -9 -89 -16 -117 -31 -18 -9 -33 -20 -33 -24 0 -5
-6 -8 -13 -8 -19 0 -67 -24 -67 -33 0 -4 -10 -2 -22 4 -16 8 -23 9 -26 1 -2
-7 -15 -6 -38 5 -37 18 -44 33 -15 33 10 0 24 7 31 15 11 13 15 13 21 3 6 -9
9 -6 9 10 0 13 -6 22 -15 22 -8 0 -15 7 -15 15 0 9 -10 20 -22 24 -23 9 -23 9
5 20 16 6 35 11 43 11 8 0 14 5 14 10 0 6 5 10 10 10 6 0 29 9 53 20 89 41
166 46 178 11z m-3571 -41 c0 -5 -5 -10 -11 -10 -5 0 -7 5 -4 10 3 6 8 10 11
10 2 0 4 -4 4 -10z m227 -40 c7 -10 24 -21 39 -24 22 -6 25 -11 19 -29 -10
-29 -9 -81 2 -140 15 -72 25 -76 63 -23 37 51 56 57 70 24 8 -21 9 -19 11 12
1 19 1 40 0 45 -3 21 58 -59 87 -115 34 -67 30 -75 -13 -30 -16 17 -34 30 -41
30 -7 0 -14 6 -17 13 -2 6 -7 9 -11 6 -4 -4 12 -26 34 -50 42 -46 48 -71 16
-77 -14 -3 -17 0 -13 12 9 22 -2 20 -30 -6 -18 -17 -26 -19 -35 -10 -14 14
-28 16 -28 4 0 -16 74 -41 116 -40 32 1 46 -4 70 -28 47 -45 81 -153 57 -178
-5 -4 -8 -11 -9 -14 -1 -11 -38 -72 -44 -72 -3 0 -6 35 -6 77 -2 98 -4 113
-20 113 -6 0 -14 7 -18 15 -4 10 -20 15 -50 15 -63 0 -89 -33 -81 -104 8 -82
21 -121 50 -149 19 -20 62 -22 85 -4 9 6 2 -1 -14 -16 -47 -44 -73 -51 -110
-29 -17 10 -42 34 -54 53 -21 30 -23 43 -19 106 3 49 0 71 -7 70 -6 -1 -10 4
-8 11 1 6 -2 12 -8 12 -5 0 -10 6 -10 14 0 8 -7 22 -16 30 -21 21 -11 20 36
-4 47 -24 51 -24 44 -6 -3 8 2 17 14 20 14 5 17 13 14 36 -5 33 -19 38 -37 14
-10 -15 -17 -15 -51 -4 -21 7 -54 22 -72 32 -19 10 -31 14 -28 9 4 -5 3 -12
-2 -15 -21 -12 -152 149 -176 216 -6 18 -20 48 -29 66 -10 18 -17 43 -15 55 3
25 38 37 38 14 0 -27 35 -77 53 -77 10 0 16 4 13 9 -4 5 -1 11 6 13 6 2 14 26
17 53 5 38 11 52 29 61 29 14 73 6 89 -16z m-882 10 c16 -7 13 -9 -17 -9 -21
-1 -38 4 -38 9 0 12 27 12 55 0z m650 0 c3 -5 1 -10 -4 -10 -6 0 -11 5 -11 10
0 6 2 10 4 10 3 0 8 -4 11 -10z m2475 0 c0 -5 -7 -7 -15 -4 -8 4 -15 8 -15 10
0 2 7 4 15 4 8 0 15 -4 15 -10z m-3163 -26 c-3 -3 -12 -4 -19 -1 -8 3 -5 6 6
6 11 1 17 -2 13 -5z m454 -108 c-7 -9 -10 -24 -6 -37 5 -16 4 -19 -5 -14 -8 5
-11 3 -8 -6 3 -8 13 -14 24 -14 13 0 20 -8 22 -27 2 -16 8 -28 13 -28 5 0 9
-5 9 -11 0 -6 -7 -9 -15 -5 -8 3 -15 2 -15 -3 0 -5 7 -14 15 -21 18 -15 19
-42 3 -58 -9 -9 -9 -15 0 -24 18 -18 15 -39 -5 -36 -15 3 -31 -32 -35 -80 -1
-7 -13 -15 -27 -19 l-26 -7 24 -6 c22 -5 19 -8 -32 -43 -31 -20 -65 -37 -76
-37 -11 0 -23 -4 -26 -10 -3 -5 -15 -10 -26 -10 -10 0 -19 -4 -19 -10 0 -5 4
-10 10 -10 14 0 50 -32 50 -45 0 -5 -4 -4 -9 4 -5 8 -16 11 -26 8 -9 -4 -14
-11 -10 -16 3 -5 1 -12 -4 -15 -4 -3 -11 -19 -14 -35 -6 -31 -29 -45 -58 -36
-25 8 -24 18 3 30 12 6 23 16 26 22 3 10 -4 10 -27 2 -17 -6 -31 -17 -31 -25
0 -8 -4 -14 -10 -14 -5 0 -10 7 -10 15 0 11 -5 12 -26 5 -31 -12 -57 -12 -29
0 17 8 18 9 3 11 -10 1 -22 3 -28 4 -5 1 -18 3 -28 4 -15 1 -18 7 -14 34 l5
32 -26 -27 c-14 -16 -28 -28 -30 -28 -2 0 -14 9 -27 20 -13 11 -31 20 -42 20
-10 0 -18 5 -18 11 0 8 -12 10 -36 6 -35 -6 -72 12 -57 27 4 3 -1 6 -10 6 -12
0 -17 9 -17 28 0 21 -2 24 -10 12 -9 -13 -12 -13 -20 2 -6 9 -17 24 -25 32 -8
8 -15 18 -15 23 0 5 -9 15 -20 23 -11 8 -20 20 -20 27 0 7 -7 10 -16 6 -13 -5
-15 -2 -9 15 3 12 2 22 -3 22 -6 0 -8 9 -5 20 3 11 0 27 -7 35 -10 13 -10 19
4 33 19 21 21 42 5 42 -8 0 -8 5 1 15 9 11 9 15 1 15 -7 0 -9 5 -5 11 3 6 15
8 25 6 11 -3 19 0 18 6 -4 33 2 47 22 47 11 0 27 7 35 15 17 17 34 20 34 6 0
-15 39 0 53 20 21 29 59 33 85 9 29 -27 79 -42 115 -34 15 3 27 1 27 -4 0 -8
118 18 160 35 35 15 74 14 82 -1 11 -19 44 -21 51 -3 3 9 20 12 52 10 40 -3
47 -1 52 16 3 11 12 22 22 24 22 5 26 0 12 -17z m1822 -37 c-3 -11 -11 -19
-17 -19 -6 0 -20 -13 -29 -30 -10 -16 -25 -30 -33 -30 -8 0 -13 -4 -10 -9 3
-5 -7 -11 -23 -14 -21 -4 -31 -14 -36 -34 -6 -24 -36 -63 -48 -63 -3 0 -7 9
-10 20 -3 13 0 20 10 20 10 0 12 6 8 20 -4 14 -2 20 7 18 7 -2 14 7 16 20 2
12 8 22 13 22 5 0 9 6 9 13 0 6 16 22 35 35 23 14 35 30 35 45 0 13 9 26 23
33 18 8 25 7 38 -9 9 -11 14 -28 12 -38z m1082 51 c3 -5 1 -10 -4 -10 -6 0
-11 5 -11 10 0 6 2 10 4 10 3 0 8 -4 11 -10z m-1750 -30 c3 -5 -1 -10 -9 -10
-9 0 -16 -5 -16 -12 0 -6 -2 -9 -5 -6 -7 7 5 38 15 38 5 0 12 -4 15 -10z m240
-120 c3 -5 2 -10 -4 -10 -5 0 -13 5 -16 10 -3 6 -2 10 4 10 5 0 13 -4 16 -10z
m-2645 -126 c19 -3 37 -10 38 -15 2 -5 9 -9 16 -9 7 0 23 -12 37 -27 13 -16
20 -25 15 -20 -5 4 -18 -1 -28 -10 -15 -14 -21 -15 -27 -4 -7 11 -10 11 -17 0
-4 -7 -3 -14 4 -17 7 -2 12 -11 12 -20 -1 -15 -2 -16 -13 -1 -27 35 -96 69
-141 69 -53 0 -76 -8 -76 -25 0 -8 -4 -17 -10 -20 -6 -4 -10 5 -10 20 0 18 13
40 35 62 38 38 42 39 165 17z m4785 -9 c11 -1 20 -4 20 -5 0 -2 20 -4 45 -5
25 -2 51 -3 58 -4 6 -1 12 -7 12 -15 0 -8 16 -20 35 -26 19 -6 38 -17 42 -23
5 -7 15 -12 23 -12 9 0 14 -7 12 -19 -2 -11 4 -26 14 -33 17 -12 17 -13 0 -13
-9 0 -15 -4 -12 -9 3 -4 -1 -16 -8 -27 -8 -10 -12 -24 -9 -30 3 -7 -5 -19 -16
-26 -12 -7 -21 -21 -21 -30 0 -23 -17 -24 -22 -1 -2 14 -8 12 -33 -11 -19 -18
-23 -26 -12 -22 10 3 16 2 13 -3 -10 -15 -71 -6 -68 10 2 8 0 11 -4 7 -13 -13
-82 51 -89 82 -4 17 -13 37 -22 45 -17 18 -24 80 -12 112 4 12 4 23 -1 25 -5
2 -7 13 -3 26 4 16 10 21 22 16 9 -3 25 -7 36 -9z m-2200 -35 c3 -5 1 -10 -4
-10 -6 0 -11 5 -11 10 0 6 2 10 4 10 3 0 8 -4 11 -10z m145 -61 c0 -14 -26
-11 -39 5 -9 11 -6 12 14 8 14 -2 25 -8 25 -13z m-20 -28 c0 -5 -7 -11 -15
-15 -9 -3 -15 0 -15 9 0 8 7 15 15 15 8 0 15 -4 15 -9z m55 -1 c3 -5 -1 -10
-9 -10 -9 0 -16 5 -16 10 0 6 4 10 9 10 6 0 13 -4 16 -10z m-2955 -60 c0 -5
-2 -10 -4 -10 -3 0 -8 5 -11 10 -3 6 -1 10 4 10 6 0 11 -4 11 -10z m226 -5 c4
-8 14 -15 24 -15 26 0 50 -11 50 -22 0 -5 -9 -23 -21 -39 -17 -24 -19 -35 -11
-57 5 -15 10 -51 11 -79 1 -40 8 -65 31 -102 17 -27 38 -52 46 -55 12 -5 14
-10 5 -20 -6 -7 -8 -16 -5 -19 3 -3 3 -10 0 -16 -12 -19 -156 50 -156 75 0 7
-4 16 -10 19 -6 4 -7 -6 -3 -25 5 -30 5 -31 -14 -20 -55 35 -174 237 -190 323
-7 39 18 35 36 -5 20 -45 36 -59 58 -52 14 4 15 4 4 -4 -16 -11 -7 -32 14 -32
9 0 12 8 10 20 -2 12 2 23 10 27 9 3 15 19 15 39 0 21 8 42 20 54 24 24 68 26
76 5z m265 -190 c21 -37 39 -79 42 -92 4 -22 3 -22 -13 -8 -9 8 -22 15 -28 15
-7 0 -12 5 -12 10 0 6 -7 10 -15 10 -20 0 -19 -7 5 -32 11 -12 20 -18 20 -14
0 4 7 1 15 -8 28 -27 9 -53 -27 -35 -11 6 -18 4 -22 -6 -7 -20 -59 -12 -85 14
-48 48 -26 166 30 166 19 0 25 6 27 28 5 42 22 29 63 -48z m782 31 c3 -8 0
-16 -6 -19 -7 -3 -13 3 -13 14 0 22 12 25 19 5z m247 -66 c0 -5 -5 -10 -11
-10 -5 0 -7 5 -4 10 3 6 8 10 11 10 2 0 4 -4 4 -10z m-93 -92 c-3 -8 -6 -5 -6
6 -1 11 2 17 5 13 3 -3 4 -12 1 -19z m-955 -88 c60 0 62 -1 104 -46 31 -34 44
-58 49 -90 7 -50 -7 -109 -35 -143 -23 -27 -37 -23 -22 6 6 10 12 52 13 93 2
56 -1 75 -12 79 -8 2 -19 11 -25 19 -6 8 -16 12 -22 8 -7 -4 -12 -3 -12 3 0 5
-19 9 -42 8 -34 -2 -45 -7 -53 -24 -5 -13 -12 -23 -16 -23 -9 0 -1 -89 13
-143 16 -65 50 -98 90 -90 40 8 31 -9 -17 -31 -31 -15 -38 -15 -62 -2 -63 32
-78 61 -82 152 -2 57 -7 84 -15 84 -7 0 -20 16 -29 35 -18 38 -13 43 21 19 12
-8 26 -12 32 -9 6 3 7 -1 4 -9 -10 -25 2 -19 21 11 18 26 26 57 27 98 0 11 2
14 5 8 3 -9 26 -13 65 -13z m4991 -384 c14 -11 15 -16 6 -22 -7 -4 -15 -2 -17
4 -2 7 -8 10 -13 6 -5 -3 -9 2 -9 10 0 19 9 20 33 2z m66 -62 c-26 -28 -22
-29 28 -9 29 12 38 13 45 3 6 -10 10 -10 18 2 11 17 13 10 4 -14 -3 -9 -16
-16 -27 -16 -19 0 -19 -2 -7 -14 20 -18 60 -30 60 -17 0 5 9 9 19 8 10 0 17
-6 14 -13 -7 -19 28 -26 42 -8 8 12 14 14 19 5 4 -6 12 -8 18 -5 7 4 8 2 4 -4
-4 -7 -14 -12 -22 -12 -8 0 -12 -5 -9 -11 4 -6 13 -8 21 -5 16 6 29 -10 14
-19 -6 -4 0 -15 15 -27 14 -10 25 -25 25 -32 0 -7 10 -18 23 -24 17 -8 18 -11
5 -11 -20 -1 -24 -16 -7 -26 5 -4 14 -18 20 -32 5 -15 13 -21 21 -17 8 5 9 2
5 -9 -3 -9 0 -23 9 -31 8 -8 11 -17 6 -20 -13 -8 -14 -76 -1 -76 6 0 8 -7 5
-16 -5 -12 -2 -15 11 -10 14 6 15 5 6 -5 -21 -21 -305 -23 -351 -3 -20 9 -44
17 -52 19 -8 2 -17 4 -20 5 -3 1 -8 2 -12 1 -13 -2 -9 27 5 32 6 2 8 8 4 13
-4 4 -21 0 -36 -9 -34 -20 -42 -21 -38 -5 1 7 -9 13 -23 14 -13 1 -26 7 -28
13 -2 6 -8 9 -13 5 -5 -3 -33 9 -62 26 -62 38 -53 30 -62 59 -4 15 -3 21 3 17
5 -3 12 4 15 16 4 12 2 25 -3 28 -5 3 -6 10 -2 16 10 15 52 24 52 12 0 -5 -10
-12 -21 -15 -19 -5 -20 -8 -6 -18 10 -7 38 -9 77 -5 47 4 63 3 67 -7 3 -9 9
-10 17 -4 17 14 76 24 76 13 0 -5 -13 -12 -30 -15 -16 -4 -39 -16 -50 -27
l-21 -21 23 -18 c14 -12 28 -16 38 -11 8 5 24 12 35 15 16 6 17 9 5 13 -10 3
-3 9 20 17 19 6 33 16 30 21 -3 5 -8 8 -12 7 -13 -5 -9 43 6 72 14 27 14 29
-17 46 -18 9 -30 23 -28 31 11 37 12 68 2 68 -6 0 -8 -7 -4 -16 4 -12 2 -15
-8 -12 -8 3 -13 12 -11 21 2 11 -2 15 -13 11 -8 -3 -15 -11 -15 -18 0 -6 -6
-2 -12 8 -8 15 -8 21 0 24 6 2 8 10 6 17 -4 10 9 18 43 28 59 18 71 12 42 -19z
m659 11 c-6 -14 -13 -23 -15 -21 -5 5 15 46 22 46 3 0 -1 -11 -7 -25z m-345
-1 c-3 -8 2 -11 16 -7 11 3 33 2 48 -2 l28 -7 -27 -14 c-20 -10 -25 -19 -21
-35 4 -15 3 -20 -5 -15 -7 4 -12 17 -12 29 -1 21 -1 21 -14 -3 -14 -24 -14
-24 -24 20 -5 25 -10 35 -11 23 -1 -14 -7 -20 -18 -19 -26 4 -27 25 -2 34 32
12 48 11 42 -4z m312 -14 c7 -11 -26 -29 -59 -32 -15 -1 -26 -8 -26 -14 0 -7
-11 -15 -25 -18 -25 -6 -35 -26 -13 -26 6 0 9 -3 6 -6 -4 -3 -16 0 -28 6 -17
9 -29 9 -48 1 -13 -7 -27 -9 -31 -6 -8 9 21 25 47 25 13 0 20 4 17 10 -4 6 6
10 24 10 16 0 33 5 36 10 8 12 14 13 -75 -4 -41 -8 -77 -12 -80 -10 -7 8 23
24 46 24 11 0 36 8 55 17 19 10 50 18 68 19 19 0 37 6 39 12 4 13 36 1 47 -18z
m-515 -40 c0 -5 -8 -10 -17 -10 -15 0 -16 2 -3 10 19 12 20 12 20 0z m912 -22
c-9 -9 -15 -9 -24 0 -9 9 -7 12 12 12 19 0 21 -3 12 -12z m-1092 -12 c0 -3 -4
-8 -10 -11 -5 -3 -10 -1 -10 4 0 6 5 11 10 11 6 0 10 -2 10 -4z m620 -6 c0 -5
-2 -10 -4 -10 -3 0 -8 5 -11 10 -3 6 -1 10 4 10 6 0 11 -4 11 -10z m444 -98
c6 -11 -6 -28 -23 -34 -8 -2 -16 -14 -18 -26 -2 -16 2 -22 17 -22 21 0 27 -15
10 -25 -17 -10 -11 -35 8 -35 11 0 13 -3 6 -8 -7 -4 -13 -16 -15 -26 -4 -19
-33 -31 -127 -49 -31 -6 -32 -6 -20 16 7 12 11 28 10 35 -2 6 3 12 11 12 7 0
23 11 34 24 l21 24 -21 6 c-28 7 -10 27 27 29 18 2 26 8 26 21 0 16 -2 17 -17
5 -14 -12 -16 -12 -11 1 2 8 11 15 19 15 8 1 25 7 38 14 19 10 21 15 10 22 -9
6 -10 9 -2 9 6 0 14 -4 17 -8z m-614 -212 c0 -5 -5 -10 -11 -10 -5 0 -7 5 -4
10 3 6 8 10 11 10 2 0 4 -4 4 -10z"/>
<path d="M4426 5995 c-3 -8 -1 -15 4 -15 13 0 22 18 11 24 -5 3 -11 -1 -15 -9z"/>
<path d="M5791 5614 c0 -11 3 -14 6 -6 3 7 2 16 -1 19 -3 4 -6 -2 -5 -13z"/>
<path d="M3010 5609 c0 -5 5 -7 10 -4 6 3 10 8 10 11 0 2 -4 4 -10 4 -5 0 -10
-5 -10 -11z"/>
<path d="M3105 5600 c3 -5 8 -10 11 -10 2 0 4 5 4 10 0 6 -5 10 -11 10 -5 0
-7 -4 -4 -10z"/>
<path d="M3004 5495 c-16 -12 -16 -14 -3 -15 9 0 22 7 29 15 16 19 0 19 -26 0z"/>
<path d="M3070 5440 c0 -5 7 -10 15 -10 8 0 15 5 15 10 0 6 -7 10 -15 10 -8 0
-15 -4 -15 -10z"/>
<path d="M2940 5419 c0 -5 5 -7 10 -4 6 3 10 8 10 11 0 2 -4 4 -10 4 -5 0 -10
-5 -10 -11z"/>
<path d="M3078 5413 c7 -3 16 -2 19 1 4 3 -2 6 -13 5 -11 0 -14 -3 -6 -6z"/>
<path d="M3063 5323 c-26 -17 -32 -46 -8 -37 15 6 40 43 33 49 -2 1 -13 -4
-25 -12z"/>
<path d="M3068 5274 c10 -5 10 -9 0 -21 -11 -14 -8 -15 21 -8 27 6 32 4 26 -6
-6 -11 -5 -12 6 -1 16 15 4 27 -36 35 -16 4 -24 4 -17 1z"/>
<path d="M3112 5150 c0 -14 2 -19 5 -12 2 6 2 18 0 25 -3 6 -5 1 -5 -13z"/>
<path d="M3592 5116 c-10 -23 -9 -26 6 -26 10 0 23 -5 29 -11 8 -8 11 -4 10
15 -1 14 -7 26 -14 26 -6 0 -13 5 -15 11 -2 6 -9 0 -16 -15z"/>
<path d="M5210 5080 c-13 -8 -13 -10 2 -10 9 0 20 5 23 10 8 13 -5 13 -25 0z"/>
<path d="M2303 5073 c-7 -3 -13 -12 -13 -21 0 -15 2 -15 17 1 18 18 16 27 -4
20z"/>
<path d="M3550 5066 c0 -2 7 -7 16 -10 8 -3 12 -2 9 4 -6 10 -25 14 -25 6z"/>
<path d="M2040 5010 c-8 -5 -12 -11 -10 -14 3 -2 14 2 24 10 22 15 10 19 -14
4z"/>
<path d="M3635 5010 c-3 -5 -1 -10 4 -10 6 0 11 5 11 10 0 6 -2 10 -4 10 -3 0
-8 -4 -11 -10z"/>
<path d="M3170 5000 c0 -5 5 -10 10 -10 6 0 10 5 10 10 0 6 -4 10 -10 10 -5 0
-10 -4 -10 -10z"/>
<path d="M2237 4923 c-4 -3 -7 -11 -7 -17 0 -6 5 -5 12 2 6 6 9 14 7 17 -3 3
-9 2 -12 -2z"/>
<path d="M3078 4853 c7 -3 16 -2 19 1 4 3 -2 6 -13 5 -11 0 -14 -3 -6 -6z"/>
<path d="M4283 4679 c-28 -10 -29 -20 -5 -35 22 -14 62 0 62 22 0 10 -3 14 -7
11 -3 -4 -11 -3 -17 2 -6 5 -21 5 -33 0z"/>
<path d="M5056 4359 c-21 -5 -44 -16 -50 -24 -6 -8 -29 -16 -51 -18 -33 -3
-40 -8 -46 -31 -6 -21 -3 -30 12 -39 10 -6 19 -17 19 -24 0 -13 88 -43 125
-43 35 0 75 24 82 48 3 15 8 19 13 13 4 -8 12 -5 24 8 11 13 14 21 6 26 -5 3
-8 10 -5 15 3 4 -2 11 -11 14 -12 5 -13 8 -2 20 7 7 19 11 25 9 16 -6 17 9 1
25 -14 14 -85 14 -142 1z"/>
<path d="M5201 4294 c0 -11 3 -14 6 -6 3 7 2 16 -1 19 -3 4 -6 -2 -5 -13z"/>
<path d="M5127 4155 c3 -8 9 -12 14 -9 12 7 11 11 -5 17 -10 4 -13 1 -9 -8z"/>
<path d="M4660 3984 c-13 -40 -14 -39 18 -48 14 -5 22 -3 22 5 0 6 7 17 16 24
23 16 10 50 -20 53 -20 1 -27 -5 -36 -34z"/>
<path d="M4414 3919 c-2 -4 5 -9 16 -12 11 -3 20 -13 21 -24 0 -16 1 -16 9 2
5 11 9 25 9 31 1 11 -48 14 -55 3z"/>
<path d="M4654 3919 c-3 -5 2 -9 11 -9 11 0 15 -6 11 -17 -3 -10 1 -29 8 -42
11 -19 14 -21 19 -7 3 8 2 18 -3 21 -6 4 -7 17 -4 29 4 18 1 25 -15 29 -12 3
-24 1 -27 -4z"/>
<path d="M4390 3851 c0 -18 18 -21 30 -6 10 13 9 15 -9 15 -11 0 -21 -4 -21
-9z"/>
<path d="M4501 3798 c-1 -9 -9 -22 -18 -27 -15 -9 -14 -10 10 -11 29 0 31 4
17 35 -7 16 -9 17 -9 3z"/>
<path d="M4430 3780 c0 -5 7 -7 15 -4 8 4 15 8 15 10 0 2 -7 4 -15 4 -8 0 -15
-4 -15 -10z"/>
<path d="M6730 5371 c0 -6 5 -13 10 -16 6 -3 10 1 10 9 0 9 -4 16 -10 16 -5 0
-10 -4 -10 -9z"/>
<path d="M1937 4573 c-4 -3 -7 -11 -7 -17 0 -6 5 -5 12 2 6 6 9 14 7 17 -3 3
-9 2 -12 -2z"/>
<path d="M1363 4350 c-10 -28 -10 -29 8 -20 10 6 19 20 19 30 0 29 -14 24 -27
-10z"/>
<path d="M1321 4264 c0 -11 3 -14 6 -6 3 7 2 16 -1 19 -3 4 -6 -2 -5 -13z"/>
<path d="M818 4253 c-7 -27 2 -36 22 -22 9 5 10 9 3 9 -6 0 -13 8 -15 18 -3
14 -5 13 -10 -5z"/>
<path d="M3402 4373 c-7 -3 -18 -16 -23 -30 -10 -27 -2 -76 12 -67 5 3 9 -4 9
-16 0 -32 29 -37 53 -7 33 38 62 50 86 35 30 -19 36 -3 10 25 -49 52 -108 76
-147 60z"/>
<path d="M3668 4203 c-9 -2 -22 -20 -28 -39 -10 -29 -9 -39 5 -60 8 -13 13
-29 10 -34 -3 -6 -2 -10 4 -10 6 0 8 -7 5 -15 -9 -22 0 -19 40 17 32 28 36 37
36 78 0 63 -17 78 -72 63z"/>
<path d="M3258 3683 c7 -3 16 -2 19 1 4 3 -2 6 -13 5 -11 0 -14 -3 -6 -6z"/>
<path d="M3210 3630 c0 -6 7 -10 15 -10 8 0 15 2 15 4 0 2 -7 6 -15 10 -8 3
-15 1 -15 -4z"/>
<path d="M2996 3551 c-4 -7 -5 -15 -2 -18 9 -9 19 4 14 18 -4 11 -6 11 -12 0z"/>
<path d="M6120 4000 c0 -5 7 -10 16 -10 8 0 12 5 9 10 -3 6 -10 10 -16 10 -5
0 -9 -4 -9 -10z"/>
<path d="M5745 3690 c4 -6 11 -8 16 -5 14 9 11 15 -7 15 -8 0 -12 -5 -9 -10z"/>
<path d="M5736 3624 c-4 -9 1 -14 15 -14 11 0 17 -4 14 -10 -3 -6 1 -7 10 -4
21 8 15 25 -12 35 -15 5 -23 3 -27 -7z"/>
<path d="M5798 3583 c7 -3 16 -2 19 1 4 3 -2 6 -13 5 -11 0 -14 -3 -6 -6z"/>
<path d="M3800 3760 c0 -5 -7 -10 -16 -10 -29 0 -44 -61 -33 -131 12 -81 36
-115 78 -112 42 2 59 17 72 67 27 99 14 169 -34 186 -38 13 -67 13 -67 0z"/>
<path d="M1695 3430 c-3 -5 -1 -10 4 -10 6 0 11 5 11 10 0 6 -2 10 -4 10 -3 0
-8 -4 -11 -10z"/>
<path d="M1442 3059 c2 -7 10 -15 17 -17 8 -3 12 1 9 9 -2 7 -10 15 -17 17 -8
3 -12 -1 -9 -9z"/>
<path d="M1400 3040 c-8 -5 -10 -10 -5 -10 6 0 17 5 25 10 8 5 11 10 5 10 -5
0 -17 -5 -25 -10z"/>
<path d="M5762 2240 c0 -14 2 -19 5 -12 2 6 2 18 0 25 -3 6 -5 1 -5 -13z"/>
<path d="M6068 2018 c5 -7 8 -24 6 -37 -4 -20 -2 -22 10 -12 12 10 13 18 4 37
-6 13 -16 24 -21 24 -6 0 -6 -5 1 -12z"/>
<path d="M5765 2000 c-3 -5 1 -10 10 -10 9 0 13 5 10 10 -3 6 -8 10 -10 10 -2
0 -7 -4 -10 -10z"/>
<path d="M5720 1952 c1 -17 19 -34 29 -28 17 11 13 23 -9 29 -11 3 -20 2 -20
-1z"/>
<path d="M5770 1950 c0 -5 5 -10 10 -10 6 0 10 5 10 10 0 6 -4 10 -10 10 -5 0
-10 -4 -10 -10z"/>
<path d="M6090 1950 c0 -5 5 -10 10 -10 6 0 10 5 10 10 0 6 -4 10 -10 10 -5 0
-10 -4 -10 -10z"/>
<path d="M5680 1936 c0 -2 7 -6 15 -10 8 -3 15 -1 15 4 0 6 -7 10 -15 10 -8 0
-15 -2 -15 -4z"/>
<path d="M6630 1939 c0 -5 5 -7 10 -4 6 3 10 8 10 11 0 2 -4 4 -10 4 -5 0 -10
-5 -10 -11z"/>
</g>
</svg>
